<mxfile host="app.diagrams.net" modified="2023-02-17T03:49:42.043Z" agent="5.0 (Macintosh; Intel Mac OS X 10_15_7) AppleWebKit/537.36 (KHTML, like Gecko) Chrome/109.0.0.0 Safari/537.36" etag="FKIn1wLRa5RYsAPQtT4I" version="20.8.20" type="github">
  <diagram name="Page-1" id="822b0af5-4adb-64df-f703-e8dfc1f81529">
    <mxGraphModel dx="1509" dy="812" grid="1" gridSize="10" guides="1" tooltips="1" connect="1" arrows="1" fold="1" page="1" pageScale="1" pageWidth="1100" pageHeight="850" background="none" math="0" shadow="0">
      <root>
        <mxCell id="0" />
        <mxCell id="1" parent="0" />
        <mxCell id="7d933b09d9755ecc-6" value="Users" style="verticalLabelPosition=bottom;aspect=fixed;html=1;verticalAlign=top;strokeColor=none;shape=mxgraph.citrix.users;rounded=0;shadow=0;comic=0;fontFamily=Verdana;" parent="1" vertex="1">
          <mxGeometry x="511" y="339" width="64.5" height="55" as="geometry" />
        </mxCell>
        <mxCell id="-F275xsapLtN91R2mQRw-13" style="edgeStyle=orthogonalEdgeStyle;rounded=0;orthogonalLoop=1;jettySize=auto;html=1;entryX=0.462;entryY=0;entryDx=0;entryDy=0;entryPerimeter=0;" edge="1" parent="1" source="7d933b09d9755ecc-9" target="-F275xsapLtN91R2mQRw-5">
          <mxGeometry relative="1" as="geometry">
            <mxPoint x="1170" y="430" as="targetPoint" />
          </mxGeometry>
        </mxCell>
        <mxCell id="-F275xsapLtN91R2mQRw-15" value="Chat request" style="edgeLabel;html=1;align=center;verticalAlign=middle;resizable=0;points=[];" vertex="1" connectable="0" parent="-F275xsapLtN91R2mQRw-13">
          <mxGeometry x="-0.2001" y="-1" relative="1" as="geometry">
            <mxPoint as="offset" />
          </mxGeometry>
        </mxCell>
        <mxCell id="7d933b09d9755ecc-9" value="Client Chat Box" style="verticalLabelPosition=bottom;aspect=fixed;html=1;verticalAlign=top;strokeColor=none;shape=mxgraph.citrix.tower_server;rounded=0;shadow=0;comic=0;fontFamily=Verdana;" parent="1" vertex="1">
          <mxGeometry x="820" y="326" width="65" height="85" as="geometry" />
        </mxCell>
        <mxCell id="7d933b09d9755ecc-23" style="rounded=0;html=1;labelBackgroundColor=none;startArrow=none;startFill=0;endArrow=block;endFill=1;strokeColor=#0000FF;strokeWidth=1;fontFamily=Verdana;fontSize=12;" parent="1" target="-F275xsapLtN91R2mQRw-25" edge="1">
          <mxGeometry relative="1" as="geometry">
            <mxPoint x="590" y="364" as="sourcePoint" />
            <mxPoint x="986.6631632040594" y="484.33022488396136" as="targetPoint" />
          </mxGeometry>
        </mxCell>
        <mxCell id="-F275xsapLtN91R2mQRw-18" style="edgeStyle=orthogonalEdgeStyle;rounded=0;orthogonalLoop=1;jettySize=auto;html=1;" edge="1" parent="1" source="-F275xsapLtN91R2mQRw-5" target="-F275xsapLtN91R2mQRw-9">
          <mxGeometry relative="1" as="geometry">
            <mxPoint x="1650" y="440" as="targetPoint" />
            <Array as="points">
              <mxPoint x="1140" y="370" />
            </Array>
          </mxGeometry>
        </mxCell>
        <mxCell id="-F275xsapLtN91R2mQRw-19" value="Handling Socket Connections" style="edgeLabel;html=1;align=center;verticalAlign=middle;resizable=0;points=[];" vertex="1" connectable="0" parent="-F275xsapLtN91R2mQRw-18">
          <mxGeometry x="0.1142" relative="1" as="geometry">
            <mxPoint as="offset" />
          </mxGeometry>
        </mxCell>
        <mxCell id="-F275xsapLtN91R2mQRw-21" style="edgeStyle=orthogonalEdgeStyle;rounded=0;orthogonalLoop=1;jettySize=auto;html=1;entryX=0.427;entryY=0.005;entryDx=0;entryDy=0;entryPerimeter=0;" edge="1" parent="1" source="-F275xsapLtN91R2mQRw-5" target="-F275xsapLtN91R2mQRw-10">
          <mxGeometry relative="1" as="geometry" />
        </mxCell>
        <mxCell id="-F275xsapLtN91R2mQRw-22" value="Data" style="edgeLabel;html=1;align=center;verticalAlign=middle;resizable=0;points=[];" vertex="1" connectable="0" parent="-F275xsapLtN91R2mQRw-21">
          <mxGeometry x="-0.2663" y="-2" relative="1" as="geometry">
            <mxPoint as="offset" />
          </mxGeometry>
        </mxCell>
        <mxCell id="-F275xsapLtN91R2mQRw-5" value="API Server" style="verticalLabelPosition=bottom;aspect=fixed;html=1;verticalAlign=top;strokeColor=none;shape=mxgraph.citrix.tower_server;rounded=0;shadow=0;comic=0;fontFamily=Verdana;" vertex="1" parent="1">
          <mxGeometry x="1080" y="480" width="80" height="104.62" as="geometry" />
        </mxCell>
        <mxCell id="-F275xsapLtN91R2mQRw-24" style="edgeStyle=orthogonalEdgeStyle;rounded=0;orthogonalLoop=1;jettySize=auto;html=1;" edge="1" parent="1" source="-F275xsapLtN91R2mQRw-6" target="-F275xsapLtN91R2mQRw-5">
          <mxGeometry relative="1" as="geometry" />
        </mxCell>
        <mxCell id="-F275xsapLtN91R2mQRw-6" value="Admin UI&lt;br&gt;" style="verticalLabelPosition=bottom;aspect=fixed;html=1;verticalAlign=top;strokeColor=none;shape=mxgraph.citrix.tower_server;rounded=0;shadow=0;comic=0;fontFamily=Verdana;" vertex="1" parent="1">
          <mxGeometry x="820" y="630" width="65" height="85" as="geometry" />
        </mxCell>
        <mxCell id="-F275xsapLtN91R2mQRw-9" value="Redis Adapter for Socket Chat" style="image;html=1;image=img/lib/clip_art/computers/Database_128x128.png" vertex="1" parent="1">
          <mxGeometry x="1400" y="326" width="80" height="80" as="geometry" />
        </mxCell>
        <mxCell id="-F275xsapLtN91R2mQRw-10" value="Mongo DB" style="image;html=1;image=img/lib/clip_art/computers/Database_128x128.png" vertex="1" parent="1">
          <mxGeometry x="1400" y="615" width="80" height="80" as="geometry" />
        </mxCell>
        <mxCell id="-F275xsapLtN91R2mQRw-23" style="edgeStyle=orthogonalEdgeStyle;rounded=0;orthogonalLoop=1;jettySize=auto;html=1;entryX=-0.025;entryY=0.447;entryDx=0;entryDy=0;entryPerimeter=0;" edge="1" parent="1" source="-F275xsapLtN91R2mQRw-11" target="-F275xsapLtN91R2mQRw-6">
          <mxGeometry relative="1" as="geometry" />
        </mxCell>
        <mxCell id="-F275xsapLtN91R2mQRw-11" value="Admin/Super Admin Users" style="verticalLabelPosition=bottom;aspect=fixed;html=1;verticalAlign=top;strokeColor=none;shape=mxgraph.citrix.users;rounded=0;shadow=0;comic=0;fontFamily=Verdana;" vertex="1" parent="1">
          <mxGeometry x="511" y="640" width="64.5" height="55" as="geometry" />
        </mxCell>
        <mxCell id="-F275xsapLtN91R2mQRw-26" style="edgeStyle=orthogonalEdgeStyle;rounded=0;orthogonalLoop=1;jettySize=auto;html=1;" edge="1" parent="1" source="-F275xsapLtN91R2mQRw-25" target="7d933b09d9755ecc-9">
          <mxGeometry relative="1" as="geometry">
            <Array as="points">
              <mxPoint x="675" y="470" />
              <mxPoint x="852" y="470" />
            </Array>
          </mxGeometry>
        </mxCell>
        <mxCell id="-F275xsapLtN91R2mQRw-27" value="Init Chat Box" style="edgeLabel;html=1;align=center;verticalAlign=middle;resizable=0;points=[];" vertex="1" connectable="0" parent="-F275xsapLtN91R2mQRw-26">
          <mxGeometry x="-0.1042" y="2" relative="1" as="geometry">
            <mxPoint as="offset" />
          </mxGeometry>
        </mxCell>
        <mxCell id="-F275xsapLtN91R2mQRw-28" style="edgeStyle=orthogonalEdgeStyle;rounded=0;orthogonalLoop=1;jettySize=auto;html=1;entryX=0;entryY=0.437;entryDx=0;entryDy=0;entryPerimeter=0;" edge="1" parent="1" source="-F275xsapLtN91R2mQRw-25" target="-F275xsapLtN91R2mQRw-5">
          <mxGeometry relative="1" as="geometry" />
        </mxCell>
        <mxCell id="-F275xsapLtN91R2mQRw-29" value="Update user status" style="edgeLabel;html=1;align=center;verticalAlign=middle;resizable=0;points=[];" vertex="1" connectable="0" parent="-F275xsapLtN91R2mQRw-28">
          <mxGeometry x="-0.1698" y="3" relative="1" as="geometry">
            <mxPoint as="offset" />
          </mxGeometry>
        </mxCell>
        <mxCell id="-F275xsapLtN91R2mQRw-25" value="Brand websites" style="verticalLabelPosition=bottom;aspect=fixed;html=1;verticalAlign=top;strokeColor=none;shape=mxgraph.citrix.tower_server;rounded=0;shadow=0;comic=0;fontFamily=Verdana;" vertex="1" parent="1">
          <mxGeometry x="640" y="480" width="70" height="91.54" as="geometry" />
        </mxCell>
      </root>
    </mxGraphModel>
  </diagram>
</mxfile>
